<svg width="16" height="16" viewBox="0 0 16 16" fill="none" xmlns="http://www.w3.org/2000/svg">
<path d="M13.8936 14.6654H1.26305C0.92807 14.6654 0.606808 14.5337 0.36994 14.2992C0.133071 14.0648 0 13.7469 0 13.4154V2.58203C0 2.25051 0.133071 1.93257 0.36994 1.69815C0.606808 1.46373 0.92807 1.33203 1.26305 1.33203C1.59804 1.33203 1.9193 1.46373 2.15617 1.69815C2.39303 1.93257 2.52611 2.25051 2.52611 2.58203V12.1654H13.8936C14.2286 12.1654 14.5498 12.2971 14.7867 12.5315C15.0236 12.7659 15.1566 13.0838 15.1566 13.4154C15.1566 13.7469 15.0236 14.0648 14.7867 14.2992C14.5498 14.5337 14.2286 14.6654 13.8936 14.6654Z" fill="white"/>
<path d="M4.63119 11.332C4.39663 11.332 4.1667 11.2674 3.96717 11.1453C3.76764 11.0233 3.60638 10.8487 3.50148 10.641C3.39658 10.4334 3.35218 10.201 3.37324 9.96977C3.39431 9.73857 3.48001 9.51774 3.62075 9.33203L6.14686 5.9987C6.34058 5.74311 6.62584 5.57063 6.94405 5.5167C7.26226 5.46276 7.58925 5.53147 7.85787 5.7087L9.28175 6.64786L11.1267 3.6062C11.2145 3.46113 11.3313 3.33523 11.4698 3.23612C11.6083 3.13701 11.7656 3.06674 11.9324 3.02958C12.0991 2.99242 12.2717 2.98913 12.4398 3.01992C12.6078 3.05071 12.7678 3.11493 12.9101 3.2087L15.4362 4.87536C15.7153 5.05925 15.9092 5.34535 15.9753 5.67072C16.0413 5.9961 15.974 6.3341 15.7882 6.61036C15.6024 6.88663 15.3133 7.07854 14.9845 7.14386C14.6557 7.20919 14.3142 7.14258 14.035 6.9587L12.6112 6.01953L10.7663 9.0612C10.6784 9.20626 10.5616 9.33216 10.4231 9.43128C10.2847 9.53039 10.1273 9.60065 9.96054 9.63782C9.7938 9.67498 9.62118 9.67827 9.45312 9.64748C9.28507 9.61669 9.12508 9.55247 8.98283 9.4587L7.45117 8.44786L5.64164 10.832C5.52399 10.9873 5.37143 11.1133 5.19605 11.2001C5.02067 11.2868 4.82728 11.332 4.63119 11.332Z" fill="white"/>
</svg>
