<svg width="12" height="7" viewBox="0 0 12 7" fill="none" xmlns="http://www.w3.org/2000/svg">
<path d="M6.01325 6.5C5.72684 6.49994 5.45218 6.39476 5.24969 6.2076L0.929687 2.21577C0.826536 2.12372 0.744259 2.0136 0.687657 1.89184C0.631056 1.77009 0.601262 1.63914 0.600016 1.50663C0.59877 1.37412 0.626096 1.24271 0.680399 1.12006C0.734703 0.99742 0.814896 0.885996 0.9163 0.792295C1.0177 0.698595 1.13829 0.624493 1.27102 0.574315C1.40374 0.524137 1.54596 0.498886 1.68936 0.500038C1.83276 0.501189 1.97448 0.528719 2.10624 0.581021C2.23801 0.633323 2.35718 0.70935 2.45681 0.804665L6.01325 4.09093L9.56969 0.804665C9.77338 0.622879 10.0462 0.522291 10.3294 0.524565C10.6125 0.526838 10.8834 0.631792 11.0836 0.816821C11.2839 1.00185 11.3975 1.25215 11.3999 1.51381C11.4024 1.77547 11.2935 2.02756 11.0968 2.21577L6.77681 6.2076C6.57431 6.39476 6.29966 6.49994 6.01325 6.5Z" fill="#898587"/>
</svg>
